<svg id="Layer_1" data-name="Layer 1" xmlns="http://www.w3.org/2000/svg" viewBox="0 0 841.89 595.28"><defs><style>.cls-1{fill:#af0015;}</style></defs><path class="cls-1" d="M384.69,190.74q-10.76-8.4-29.89-8.4H303.41v67.5h52.4q19.14,0,29.38-9.06t10.25-24.18v-.68Q395.44,199.14,384.69,190.74Z"/><path class="cls-1" d="M599.24,313.2A72.73,72.73,0,0,0,582,288.09c-.88-.93-23.47-23.5-24.4-24.38S441.91,155.05,440.73,154.17s-2.3-1.85-3.48-2.73-5.78-4.59-7-5.48c-17.69-14.66-41.56-22.11-71.11-22.11H310.4l-57.33-13.18L239.89,53.34l-13.18,57.33-57.33,13.18L226.71,137l13.18,57.33v188.2L419.39,500.1h51.72V429.58h39.3a128.27,128.27,0,0,0,37.11-5.21,88.05,88.05,0,0,0,30.23-15.62,73.25,73.25,0,0,0,20.31-25.86q7.4-15.43,7.39-35.93v-.67A85.45,85.45,0,0,0,599.24,313.2ZM239.89,152.83l-5.42-23.56-23.56-5.42,23.56-5.42,5.42-23.56,5.41,23.56,23.57,5.42-23.57,5.42ZM394.43,370.75l-50.38-75.23H303.41v75.23H251.69V135.65H359.17q44.65,0,68.51,23.85,20.15,20.15,20.15,53.74v.67q0,28.54-13.94,46.51a80.7,80.7,0,0,1-36.44,26.37l57.43,84Z"/></svg>