<svg id="Layer_1" data-name="Layer 1" xmlns="http://www.w3.org/2000/svg" viewBox="0 0 841.89 202.04"><defs><style>.cls-1,.cls-2{fill:#af0015;}.cls-2{font-size:72.93px;font-family:Gotham-Bold, Gotham;font-weight:700;}</style></defs><path class="cls-1" d="M143.58,67.86q-4.28-3.35-11.9-3.34H111.21V91.4h20.87q7.62,0,11.7-3.61a12.23,12.23,0,0,0,4.08-9.63v-.27Q147.86,71.2,143.58,67.86Z"/><path class="cls-1" d="M229,116.64a29,29,0,0,0-6.86-10c-.34-.37-9.34-9.35-9.71-9.71S166.37,53.65,165.9,53.3s-.91-.74-1.39-1.09-2.3-1.83-2.77-2.18c-7.05-5.84-16.55-8.81-28.33-8.81H114L91.16,36,85.91,13.14,80.66,36,57.83,41.22l22.83,5.25L85.91,69.3v75l71.49,46.81H178V163h15.65a51.11,51.11,0,0,0,14.78-2.07,35,35,0,0,0,12-6.22,29.19,29.19,0,0,0,8.09-10.3,32.83,32.83,0,0,0,2.94-14.31v-.27A34,34,0,0,0,229,116.64ZM85.91,52.76l-2.16-9.38-9.38-2.16,9.38-2.15,2.16-9.39,2.16,9.39,9.38,2.15-9.38,2.16Zm61.55,86.8-20.06-30H111.21v30H90.61V45.92h42.8q17.79,0,27.29,9.5,8,8,8,21.4v.27q0,11.37-5.55,18.53a32.21,32.21,0,0,1-14.52,10.5l22.88,33.44Z"/><text class="cls-2" transform="translate(247.24 134.78)">RIM PICTURES</text></svg>