<svg id="Layer_1" data-name="Layer 1" xmlns="http://www.w3.org/2000/svg" viewBox="0 0 841.89 198.24"><defs><style>.cls-1,.cls-2{fill:#fff;}.cls-2{font-size:72.93px;font-family:Gotham-Bold, Gotham;font-weight:700;}</style></defs><path class="cls-1" d="M143.58,65.69q-4.28-3.34-11.9-3.34H111.21V89.23h20.87q7.62,0,11.7-3.61A12.23,12.23,0,0,0,147.86,76v-.27Q147.86,69,143.58,65.69Z"/><path class="cls-1" d="M229,114.47a29,29,0,0,0-6.86-10c-.34-.37-9.34-9.35-9.71-9.71S166.37,51.48,165.9,51.13s-.91-.74-1.39-1.09-2.3-1.83-2.77-2.18c-7.05-5.84-16.55-8.81-28.33-8.81H114L91.16,33.8,85.91,11,80.66,33.8,57.83,39.05,80.66,44.3l5.25,22.83v75L157.4,188.9H178V160.81h15.65a51.11,51.11,0,0,0,14.78-2.07,35,35,0,0,0,12-6.22,29.19,29.19,0,0,0,8.09-10.3,32.83,32.83,0,0,0,2.94-14.31v-.27A34,34,0,0,0,229,114.47ZM85.91,50.59l-2.16-9.38-9.38-2.16,9.38-2.16,2.16-9.38,2.16,9.38,9.38,2.16-9.38,2.16Zm61.55,86.8-20.06-30H111.21v30H90.61V43.75h42.8q17.79,0,27.29,9.5,8,8,8,21.4v.27q0,11.37-5.55,18.52A32.16,32.16,0,0,1,148.66,104l22.88,33.44Z"/><text class="cls-2" transform="translate(247.24 132.61)">RIM PICTURES</text></svg>